<?xml version="1.0" encoding="utf-8"?>
<!-- Generator: Adobe Illustrator 19.2.1, SVG Export Plug-In . SVG Version: 6.00 Build 0)  -->
<svg version="1.1" id="Layer_1" xmlns="http://www.w3.org/2000/svg" xmlns:xlink="http://www.w3.org/1999/xlink" x="0px" y="0px"
	 viewBox="0 0 24 24" style="enable-background:new 0 0 24 24;" xml:space="preserve">
<g>
	<path d="M16.8,6.6L4.3,13.1C4.1,13.2,4,13.4,4,13.6C4.1,13.8,4.3,14,4.5,14H10v5.5c0,0.2,0.2,0.4,0.4,0.5l0.1,0
		c0.2,0,0.4-0.1,0.4-0.3l6.5-12.5c0.1-0.2,0.1-0.4-0.1-0.6C17.2,6.5,17,6.5,16.8,6.6z M12,0C5.4,0,0,5.4,0,12s5.4,12,12,12
		s12-5.4,12-12S18.6,0,12,0z M12,23C5.9,23,1,18.1,1,12S5.9,1,12,1s11,4.9,11,11S18.1,23,12,23z"/>
</g>
</svg>
