<svg id="Layer_1" data-name="Layer 1" xmlns="http://www.w3.org/2000/svg" width="64" height="64" viewBox="0 0 64 64"><defs><style>.cls-1{fill:#666;}</style></defs><title>wine_glass</title><path id="wine_glass" class="cls-1" d="M48,16.12A22.71,22.71,0,0,0,44.63,4.44,1,1,0,0,0,43.8,4H18.2a1,1,0,0,0-.83.44A22.71,22.71,0,0,0,14,16.12C14,28,26.78,33.29,30,34.44V58H21a1,1,0,0,0,0,2H41a1,1,0,0,0,0-2H32V34.44C35.22,33.29,48,28,48,16.12ZM18.76,6H43.24A21.22,21.22,0,0,1,46,16H16A21.22,21.22,0,0,1,18.76,6ZM31,32.67C29,32,17.5,27.58,16.14,18H45.86C44.5,27.58,33,32,31,32.67Z"/></svg>