<svg id="Layer_1" data-name="Layer 1" xmlns="http://www.w3.org/2000/svg" width="64" height="64" viewBox="0 0 64 64"><defs><style>.cls-1{fill:#666;}</style></defs><title>arrows_out_2</title><path class="cls-1" d="M7,20a1,1,0,0,0,1-1V9.41L24.29,25.7A1,1,0,0,0,25,26a1,1,0,0,0,.71-0.29,1,1,0,0,0,0-1.41L9.41,8H19a1,1,0,0,0,0-2H7A1,1,0,0,0,6,7V19A1,1,0,0,0,7,20Z"/><path class="cls-1" d="M45,6a1,1,0,0,0,0,2h9.59L38.29,24.29A1,1,0,0,0,39,26a1,1,0,0,0,.71-0.29L56,9.41V19a1,1,0,1,0,2,0V7a1,1,0,0,0-.08-0.38,1,1,0,0,0-.54-0.54A1,1,0,0,0,57,6H45Z"/><path class="cls-1" d="M6.62,57.92A1,1,0,0,0,7,58H19a1,1,0,0,0,0-2H9.41L25.7,39.71a1,1,0,0,0-1.41-1.41L8,54.59V45a1,1,0,0,0-2,0V57a1,1,0,0,0,.08.38A1,1,0,0,0,6.62,57.92Z"/><path class="cls-1" d="M44,57a1,1,0,0,0,1,1H57a1,1,0,0,0,1-1V45a1,1,0,0,0-2,0v9.59L39.71,38.29A1,1,0,1,0,38.3,39.7L54.59,56H45A1,1,0,0,0,44,57Z"/></svg>